<svg version="1.1" id="Layer_1" xmlns="http://www.w3.org/2000/svg" xmlns:xlink="http://www.w3.org/1999/xlink" x="0px" y="0px"
	 width="100%" viewBox="0 0 900 720" enable-background="new 0 0 900 720" xml:space="preserve">
<path fill="#000000" opacity="1.000000" stroke="none" 
	d="
M358.000000,721.000000 
	C352.644653,721.000000 347.289337,721.000000 341.454895,720.575684 
	C335.425110,719.966248 329.874603,719.773987 324.322540,719.655090 
	C324.224701,719.652954 324.107941,720.532043 324.000000,721.000000 
	C318.644653,721.000000 313.289337,721.000000 307.454803,720.575562 
	C301.425568,719.966309 295.875671,719.774292 290.324219,719.655640 
	C290.225769,719.653564 290.108490,720.532288 290.000000,721.000000 
	C284.644653,721.000000 279.289337,721.000000 273.454254,720.575928 
	C267.423767,719.966431 261.873169,719.773865 256.321014,719.654541 
	C256.223694,719.652527 256.107422,720.531921 256.000000,721.000000 
	C250.644669,721.000000 245.289322,721.000000 239.454834,720.575684 
	C233.425522,719.966370 227.875519,719.774109 222.323975,719.655212 
	C222.225632,719.653137 222.108414,720.532104 222.000000,721.000000 
	C216.644669,721.000000 211.289322,721.000000 205.454956,720.575623 
	C199.425201,719.966187 193.874619,719.773804 188.322449,719.654907 
	C188.224625,719.652771 188.107895,720.531982 187.999985,721.000000 
	C182.644669,721.000000 177.289322,721.000000 171.454849,720.575562 
	C165.425842,719.966431 159.876144,719.774292 154.324875,719.655762 
	C154.226212,719.653687 154.108704,720.532288 154.000000,721.000000 
	C103.008423,721.000000 52.016846,721.000000 1.018953,721.000000 
	C1.012635,481.048065 1.012635,241.096130 1.012635,1.072094 
	C300.902374,1.072094 600.804749,1.072094 900.853577,1.072094 
	C900.853577,240.999939 900.853577,480.999969 900.853577,721.000000 
	C850.586487,721.000000 800.261047,721.000000 749.455200,720.575928 
	C743.425110,719.966919 737.875549,719.774780 732.324402,719.656067 
	C732.225891,719.653931 732.108521,720.532410 732.000000,721.000000 
	C726.644653,721.000000 721.289307,721.000000 715.454651,720.575623 
	C709.425476,719.966492 703.875793,719.774414 698.324463,719.655884 
	C698.225952,719.653748 698.108582,720.532349 698.000000,721.000000 
	C692.644653,721.000000 687.289307,721.000000 681.454834,720.575806 
	C675.425781,719.966858 669.876038,719.774780 664.324646,719.656067 
	C664.226074,719.653992 664.108643,720.532410 664.000000,721.000000 
	C658.644653,721.000000 653.289307,721.000000 647.455017,720.575623 
	C641.426025,719.966492 635.876160,719.774414 630.324646,719.655762 
	C630.226074,719.653687 630.108643,720.532349 630.000000,721.000000 
	C624.644653,721.000000 619.289307,721.000000 613.454590,720.575867 
	C607.425110,719.966675 601.875061,719.774353 596.323486,719.655457 
	C596.225281,719.653381 596.108276,720.532227 596.000000,721.000000 
	C590.644653,721.000000 585.289307,721.000000 579.454590,720.575684 
	C573.425476,719.966553 567.875977,719.774475 562.324829,719.655762 
	C562.226196,719.653687 562.108704,720.532349 562.000000,721.000000 
	C556.644653,721.000000 551.289307,721.000000 545.454346,720.575867 
	C539.425171,719.966858 533.875854,719.774719 528.324890,719.655945 
	C528.226257,719.653870 528.108765,720.532349 528.000000,721.000000 
	C522.644653,721.000000 517.289307,721.000000 511.454956,720.575439 
	C505.425781,719.966248 499.875824,719.774231 494.324341,719.655701 
	C494.225861,719.653564 494.108551,720.532288 494.000000,721.000000 
	C454.645233,721.000000 415.290466,721.000000 375.455627,720.575562 
	C369.424713,719.965881 363.874023,719.773499 358.321838,719.654358 
	C358.224213,719.652344 358.107727,720.531799 358.000000,721.000000 
M210.031097,498.872559 
	C209.689957,499.001007 209.348801,499.129456 209.007645,499.257904 
	C209.299896,499.542450 209.592148,499.826996 210.129440,500.760010 
	C212.396271,502.198517 214.663086,503.637054 217.134155,505.758667 
	C218.652328,507.063538 220.170517,508.368439 221.688690,509.673340 
	C222.010117,509.296051 222.331543,508.918732 222.652969,508.541443 
	C220.937286,507.161621 219.221603,505.781799 217.040680,503.948669 
	C214.859039,502.418488 212.677383,500.888306 210.031097,498.872559 
M623.917603,502.868652 
	C621.899536,505.346008 619.881409,507.823364 617.857178,510.308228 
	C622.169922,510.308228 626.099182,510.308228 630.028503,510.308228 
	C630.017212,509.947754 630.005981,509.587250 629.994751,509.226776 
	C627.704102,509.046387 625.413513,508.866028 622.626770,508.646606 
	C623.607849,506.454193 624.358215,504.777466 625.754028,502.861145 
	C626.596069,501.809967 627.438110,500.758820 628.280212,499.707642 
	C627.998840,499.460876 627.717468,499.214111 627.436096,498.967316 
	C626.422791,500.115051 625.409485,501.262787 623.917603,502.868652 
M187.139725,391.976074 
	C181.774506,392.000427 176.409302,392.024750 171.016891,391.240967 
	C170.405655,390.125305 170.032516,388.314117 169.143539,388.009766 
	C164.315781,386.356995 159.360687,385.076202 154.186981,383.592010 
	C154.186981,386.453766 154.186981,389.017944 154.186981,391.937500 
	C159.954330,391.937500 165.552704,391.937500 170.990967,392.814148 
	C171.057724,394.062500 171.124466,395.310883 171.215836,397.019501 
	C175.741730,396.718445 179.947586,396.231140 184.154037,396.225830 
	C187.400955,396.221741 188.578476,394.969330 188.913727,392.039154 
	C204.262299,392.125916 204.262299,392.125916 204.574173,389.273315 
	C199.486679,389.608490 194.395599,389.902954 189.317749,390.348358 
	C188.863205,390.388245 188.494446,391.406097 187.139725,391.976074 
M571.529846,345.009430 
	C573.813721,327.553223 576.653076,310.147583 578.246765,292.628571 
	C580.442749,268.487946 579.192078,244.431351 573.482422,220.744949 
	C563.342712,178.680511 539.172485,146.458481 503.903931,122.189835 
	C494.962860,116.037392 485.483795,110.666710 476.147369,104.871910 
	C443.938354,152.772873 412.307861,199.813507 379.892029,248.022034 
	C379.485352,238.479568 379.172943,230.261261 378.774445,222.047119 
	C378.368713,213.683762 377.878204,205.324509 377.356842,195.709549 
	C370.034302,208.224518 363.398193,219.566299 356.631378,231.131500 
	C355.396973,229.833282 354.431305,228.910446 353.570435,227.898453 
	C340.718475,212.790710 318.279449,214.919708 304.756042,225.194717 
	C302.026947,227.268265 300.871765,229.624680 301.291229,233.299973 
	C302.140076,240.736526 302.420532,248.242157 302.814697,255.725662 
	C304.985870,296.945007 308.287201,338.043579 316.108917,378.646118 
	C316.815765,382.315308 317.291565,386.754333 319.586975,389.279175 
	C340.997772,412.830017 362.985229,435.856903 389.138123,454.317291 
	C401.338837,462.929382 414.990784,468.681061 429.816864,470.766022 
	C442.168182,472.502960 453.226196,467.129333 464.295959,462.671143 
	C476.355896,457.814270 486.917847,450.462372 497.001740,443.100616 
	C488.410217,438.027039 480.088226,433.112579 471.136414,427.826233 
	C484.665253,428.222137 497.046814,428.609619 509.430084,428.933533 
	C513.877014,429.049835 517.728394,427.850952 521.291382,424.795258 
	C533.672546,414.176788 546.310303,403.857788 558.794556,393.358429 
	C560.013245,392.333527 561.445190,390.985840 561.767151,389.559784 
	C565.052002,375.008484 568.127075,360.409882 571.529846,345.009430 
M481.239227,460.809082 
	C474.212250,464.139252 467.324432,467.813843 460.126648,470.721191 
	C448.482788,475.424469 436.318359,479.579407 423.798828,475.686005 
	C412.489288,472.168915 401.260223,467.773254 390.847565,462.179260 
	C381.781372,457.308716 373.904968,450.223572 365.142548,443.855133 
	C365.107208,444.581970 365.042297,445.172485 365.055176,445.761292 
	C365.499359,466.086914 363.188019,485.874298 353.802979,504.321960 
	C353.338623,505.234680 353.309418,506.540894 353.497742,507.588379 
	C357.843811,531.764343 362.273529,555.925171 366.635895,580.098267 
	C373.120758,616.032898 379.558228,651.976135 386.032867,687.912598 
	C387.641998,696.843811 389.316284,705.763306 390.821442,713.932739 
	C419.125305,713.932739 446.745026,713.932739 474.130951,713.932739 
	C474.615662,712.707214 474.826111,712.270142 474.964600,711.811340 
	C494.670013,646.526978 514.374268,581.242249 534.065979,515.953735 
	C536.739929,507.088165 540.986511,498.313660 541.593567,489.300934 
	C542.433167,476.833893 540.510681,464.180786 539.836426,452.718475 
	C527.961731,450.288940 516.811646,447.925964 505.612122,445.826324 
	C504.306946,445.581604 502.567963,446.546021 501.304260,447.370209 
	C494.767273,451.633453 488.319489,456.033447 481.239227,460.809082 
M642.776367,174.730591 
	C643.922913,178.934921 645.069397,183.139252 646.215942,187.343582 
	C646.574463,187.280685 646.933044,187.217804 647.291565,187.154907 
	C646.871277,181.881485 646.451050,176.608047 646.001953,170.973343 
	C643.784607,171.226242 640.900513,169.834503 642.776367,174.730591 
M642.353821,154.004257 
	C643.468872,153.949585 644.583984,153.894913 645.699036,153.840225 
	C637.178955,154.409439 635.053467,148.604660 633.542908,142.011307 
	C633.123474,140.180374 632.162598,138.473465 631.450073,136.709656 
	C630.965698,136.905350 630.481323,137.101028 629.996948,137.296707 
	C632.064880,142.840286 634.132751,148.383850 636.226440,153.996414 
	C638.170044,153.996414 639.823669,153.996414 642.353821,154.004257 
M155.827286,422.649628 
	C155.287628,423.696045 154.747986,424.742432 154.188644,425.827026 
	C157.016388,425.827026 159.464905,425.827026 162.487503,425.827026 
	C160.524597,421.896301 158.751511,418.345673 156.978424,414.795074 
	C156.750046,414.936127 156.521683,415.077209 156.293304,415.218292 
	C156.293304,417.502350 156.293304,419.786377 155.827286,422.649628 
M196.302643,353.726593 
	C205.647354,349.305695 205.647354,349.305695 204.281754,340.983185 
	C204.444839,351.185547 195.068253,351.442474 189.721252,356.174927 
	C191.676819,355.444031 193.632401,354.713135 196.302643,353.726593 
M199.496994,453.006012 
	C200.784836,453.992676 202.072678,454.979340 203.360519,455.966003 
	C202.649933,456.879730 201.996109,458.522186 201.219040,458.582672 
	C197.608047,458.864014 193.962906,458.707245 190.329987,458.707245 
	C190.344498,459.031403 190.359009,459.355591 190.373535,459.679749 
	C195.232529,459.679749 200.091537,459.679749 204.807327,459.679749 
	C204.807327,457.188324 204.807327,455.081116 204.807327,452.765289 
	C201.715302,452.204376 198.831070,451.681183 195.946854,451.157959 
	C195.881561,451.327576 195.816254,451.497192 195.750961,451.666809 
	C196.743484,452.094971 197.735992,452.523132 199.496994,453.006012 
M632.087097,515.917358 
	C631.794006,514.487000 631.500854,513.056580 631.207703,511.626190 
	C630.851379,511.708099 630.494995,511.790009 630.138672,511.871918 
	C630.138672,514.158142 630.138672,516.444336 630.138672,518.953918 
	C635.693359,520.447449 641.164001,521.918457 646.634705,523.389404 
	C646.531433,522.403076 646.192078,522.193237 645.826782,522.049255 
	C641.324158,520.275024 636.817749,518.510254 632.087097,515.917358 
M226.107315,453.101379 
	C224.839630,453.172180 223.571960,453.242981 222.223648,453.318268 
	C222.223648,455.769836 222.223648,457.847992 222.223648,459.929474 
	C227.142670,459.819550 227.859283,458.737396 226.107315,453.101379 
M787.652222,630.010193 
	C787.676697,635.318604 793.212097,646.180054 795.688293,646.276855 
	C793.310730,640.913879 790.888550,635.450134 787.652222,630.010193 
M624.830139,125.853409 
	C626.316528,129.194656 627.802979,132.535889 629.289368,135.877136 
	C629.711182,135.693970 630.132935,135.510803 630.554688,135.327621 
	C629.383850,132.426376 628.294556,129.488586 627.016174,126.635521 
	C626.012695,124.395874 624.775391,122.260994 623.641968,120.079567 
	C623.239685,120.286636 622.837402,120.493713 622.435120,120.700783 
	C623.103760,122.203804 623.772400,123.706825 624.830139,125.853409 
M531.049561,424.360046 
	C530.387634,424.820831 529.725769,425.281616 529.063843,425.742401 
	C529.218811,425.991333 529.373779,426.240265 529.528809,426.489197 
	C532.279297,425.929291 535.029846,425.369354 537.803345,424.804779 
	C537.803345,422.985901 537.803345,421.421112 537.803345,418.936798 
	C535.367615,420.903015 533.491943,422.417175 531.049561,424.360046 
M215.142334,338.949951 
	C212.197006,339.490295 209.251663,340.030640 206.306610,340.572296 
	C217.894958,342.138397 222.408035,339.677582 221.742172,332.967255 
	C220.042801,334.726044 218.001923,336.838257 215.142334,338.949951 
M262.361084,148.014404 
	C261.572388,149.991226 260.783691,151.968033 260.066833,153.764801 
	C263.353729,153.730423 266.382843,147.574066 265.464966,139.826965 
	C264.366882,143.145462 263.655823,145.294373 262.361084,148.014404 
M100.121857,657.763977 
	C100.249382,656.519287 100.376915,655.274658 100.468216,654.383606 
	C97.943138,657.853882 95.567299,661.119019 93.600334,663.822266 
	C94.196068,663.822266 96.130424,663.822266 98.233116,663.822266 
	C98.828743,661.992126 99.385384,660.281738 100.121857,657.763977 
M235.325409,515.919861 
	C239.127365,519.486389 238.270203,523.130310 235.688995,527.113159 
	C236.910904,526.711487 238.696503,526.122131 238.807510,525.305237 
	C239.180191,522.562805 239.239212,519.691650 238.784424,516.975952 
	C238.650620,516.176880 236.414368,515.729858 235.325409,515.919861 
M208.493576,497.521057 
	C208.493576,497.521057 208.474594,497.567352 208.493576,497.521057 
M206.525940,495.506775 
	C206.525940,495.506775 206.486908,495.508240 206.525940,495.506775 
z"/>
<path fill="#B1B1B1" opacity="1.000000" stroke="none" 
	d="
M256.467590,721.000000 
	C256.107422,720.531921 256.223694,719.652527 256.321014,719.654541 
	C261.873169,719.773865 267.423767,719.966431 272.987244,720.575928 
	C267.645081,721.000000 262.290131,721.000000 256.467590,721.000000 
z"/>
<path fill="#B1B1B1" opacity="1.000000" stroke="none" 
	d="
M222.467621,721.000000 
	C222.108414,720.532104 222.225632,719.653137 222.323975,719.655212 
	C227.875519,719.774109 233.425522,719.966370 238.987823,720.575684 
	C233.645065,721.000000 228.290146,721.000000 222.467621,721.000000 
z"/>
<path fill="#B1B1B1" opacity="1.000000" stroke="none" 
	d="
M290.467590,721.000000 
	C290.108490,720.532288 290.225769,719.653564 290.324219,719.655640 
	C295.875671,719.774292 301.425568,719.966309 306.987793,720.575562 
	C301.645081,721.000000 296.290131,721.000000 290.467590,721.000000 
z"/>
<path fill="#B1B1B1" opacity="1.000000" stroke="none" 
	d="
M324.467621,721.000000 
	C324.107941,720.532043 324.224701,719.652954 324.322540,719.655090 
	C329.874603,719.773987 335.425110,719.966248 340.987915,720.575684 
	C335.645081,721.000000 330.290131,721.000000 324.467621,721.000000 
z"/>
<path fill="#B1B1B1" opacity="1.000000" stroke="none" 
	d="
M358.467621,721.000000 
	C358.107727,720.531799 358.224213,719.652344 358.321838,719.654358 
	C363.874023,719.773499 369.424713,719.965881 374.987762,720.575562 
	C369.645081,721.000000 364.290131,721.000000 358.467621,721.000000 
z"/>
<path fill="#B1B1B1" opacity="1.000000" stroke="none" 
	d="
M494.467621,721.000000 
	C494.108551,720.532288 494.225861,719.653564 494.324341,719.655701 
	C499.875824,719.774231 505.425781,719.966248 510.987946,720.575439 
	C505.645081,721.000000 500.290131,721.000000 494.467621,721.000000 
z"/>
<path fill="#B1B1B1" opacity="1.000000" stroke="none" 
	d="
M528.467590,721.000000 
	C528.108765,720.532349 528.226257,719.653870 528.324890,719.655945 
	C533.875854,719.774719 539.425171,719.966858 544.987305,720.575867 
	C539.645081,721.000000 534.290100,721.000000 528.467590,721.000000 
z"/>
<path fill="#B1B1B1" opacity="1.000000" stroke="none" 
	d="
M562.467590,721.000000 
	C562.108704,720.532349 562.226196,719.653687 562.324829,719.655762 
	C567.875977,719.774475 573.425476,719.966553 578.987549,720.575684 
	C573.645081,721.000000 568.290100,721.000000 562.467590,721.000000 
z"/>
<path fill="#B1B1B1" opacity="1.000000" stroke="none" 
	d="
M596.467651,721.000000 
	C596.108276,720.532227 596.225281,719.653381 596.323486,719.655457 
	C601.875061,719.774353 607.425110,719.966675 612.987671,720.575867 
	C607.645081,721.000000 602.290100,721.000000 596.467651,721.000000 
z"/>
<path fill="#B1B1B1" opacity="1.000000" stroke="none" 
	d="
M732.467590,721.000000 
	C732.108521,720.532410 732.225891,719.653931 732.324402,719.656067 
	C737.875549,719.774780 743.425110,719.966919 748.987427,720.575928 
	C743.645081,721.000000 738.290100,721.000000 732.467590,721.000000 
z"/>
<path fill="#B1B1B1" opacity="1.000000" stroke="none" 
	d="
M630.467590,721.000000 
	C630.108643,720.532349 630.226074,719.653687 630.324646,719.655762 
	C635.876160,719.774414 641.426025,719.966492 646.988037,720.575623 
	C641.645081,721.000000 636.290100,721.000000 630.467590,721.000000 
z"/>
<path fill="#B1B1B1" opacity="1.000000" stroke="none" 
	d="
M664.467590,721.000000 
	C664.108643,720.532410 664.226074,719.653992 664.324646,719.656067 
	C669.876038,719.774780 675.425781,719.966858 680.987854,720.575806 
	C675.645081,721.000000 670.290100,721.000000 664.467590,721.000000 
z"/>
<path fill="#B1B1B1" opacity="1.000000" stroke="none" 
	d="
M698.467590,721.000000 
	C698.108582,720.532349 698.225952,719.653748 698.324463,719.655884 
	C703.875793,719.774414 709.425476,719.966492 714.987671,720.575623 
	C709.645081,721.000000 704.290100,721.000000 698.467590,721.000000 
z"/>
<path fill="#B1B1B1" opacity="1.000000" stroke="none" 
	d="
M188.467590,721.000000 
	C188.107895,720.531982 188.224625,719.652771 188.322449,719.654907 
	C193.874619,719.773804 199.425201,719.966187 204.987961,720.575623 
	C199.645065,721.000000 194.290146,721.000000 188.467590,721.000000 
z"/>
<path fill="#B1B1B1" opacity="1.000000" stroke="none" 
	d="
M154.467606,721.000000 
	C154.108704,720.532288 154.226212,719.653687 154.324875,719.655762 
	C159.876144,719.774292 165.425842,719.966431 170.987854,720.575562 
	C165.645065,721.000000 160.290146,721.000000 154.467606,721.000000 
z"/>
<path fill="#FEFEFE" opacity="1.000000" stroke="none" 
	d="
M571.395386,345.416962 
	C568.127075,360.409882 565.052002,375.008484 561.767151,389.559784 
	C561.445190,390.985840 560.013245,392.333527 558.794556,393.358429 
	C546.310303,403.857788 533.672546,414.176788 521.291382,424.795258 
	C517.728394,427.850952 513.877014,429.049835 509.430084,428.933533 
	C497.046814,428.609619 484.665253,428.222137 471.136414,427.826233 
	C480.088226,433.112579 488.410217,438.027039 497.001740,443.100616 
	C486.917847,450.462372 476.355896,457.814270 464.295959,462.671143 
	C453.226196,467.129333 442.168182,472.502960 429.816864,470.766022 
	C414.990784,468.681061 401.338837,462.929382 389.138123,454.317291 
	C362.985229,435.856903 340.997772,412.830017 319.586975,389.279175 
	C317.291565,386.754333 316.815765,382.315308 316.108917,378.646118 
	C308.287201,338.043579 304.985870,296.945007 302.814697,255.725662 
	C302.420532,248.242157 302.140076,240.736526 301.291229,233.299973 
	C300.871765,229.624680 302.026947,227.268265 304.756042,225.194717 
	C318.279449,214.919708 340.718475,212.790710 353.570435,227.898453 
	C354.431305,228.910446 355.396973,229.833282 356.631378,231.131500 
	C363.398193,219.566299 370.034302,208.224518 377.356842,195.709549 
	C377.878204,205.324509 378.368713,213.683762 378.774445,222.047119 
	C379.172943,230.261261 379.485352,238.479568 379.892029,248.022034 
	C412.307861,199.813507 443.938354,152.772873 476.147369,104.871910 
	C485.483795,110.666710 494.962860,116.037392 503.903931,122.189835 
	C539.172485,146.458481 563.342712,178.680511 573.482422,220.744949 
	C579.192078,244.431351 580.442749,268.487946 578.246765,292.628571 
	C576.653076,310.147583 573.813721,327.553223 571.395386,345.416962 
z"/>
<path fill="#FEFEFE" opacity="1.000000" stroke="none" 
	d="
M481.539917,460.597412 
	C488.319489,456.033447 494.767273,451.633453 501.304260,447.370209 
	C502.567963,446.546021 504.306946,445.581604 505.612122,445.826324 
	C516.811646,447.925964 527.961731,450.288940 539.836426,452.718475 
	C540.510681,464.180786 542.433167,476.833893 541.593567,489.300934 
	C540.986511,498.313660 536.739929,507.088165 534.065979,515.953735 
	C514.374268,581.242249 494.670013,646.526978 474.964600,711.811340 
	C474.826111,712.270142 474.615662,712.707214 474.130951,713.932739 
	C446.745026,713.932739 419.125305,713.932739 390.821442,713.932739 
	C389.316284,705.763306 387.641998,696.843811 386.032867,687.912598 
	C379.558228,651.976135 373.120758,616.032898 366.635895,580.098267 
	C362.273529,555.925171 357.843811,531.764343 353.497742,507.588379 
	C353.309418,506.540894 353.338623,505.234680 353.802979,504.321960 
	C363.188019,485.874298 365.499359,466.086914 365.055176,445.761292 
	C365.042297,445.172485 365.107208,444.581970 365.142548,443.855133 
	C373.904968,450.223572 381.781372,457.308716 390.847565,462.179260 
	C401.260223,467.773254 412.489288,472.168915 423.798828,475.686005 
	C436.318359,479.579407 448.482788,475.424469 460.126648,470.721191 
	C467.324432,467.813843 474.212250,464.139252 481.539917,460.597412 
z"/>
<path fill="#D7D7D7" opacity="1.000000" stroke="none" 
	d="
M171.151062,391.937500 
	C165.552704,391.937500 159.954330,391.937500 154.186981,391.937500 
	C154.186981,389.017944 154.186981,386.453766 154.186981,383.592010 
	C159.360687,385.076202 164.315781,386.356995 169.143539,388.009766 
	C170.032516,388.314117 170.405655,390.125305 171.057495,391.618652 
	C171.098114,391.996307 171.151062,391.937500 171.151062,391.937500 
z"/>
<path fill="#D2D2D2" opacity="1.000000" stroke="none" 
	d="
M187.992767,391.870117 
	C188.578476,394.969330 187.400955,396.221741 184.154037,396.225830 
	C179.947586,396.231140 175.741730,396.718445 171.215836,397.019501 
	C171.124466,395.310883 171.057724,394.062500 171.071014,392.375824 
	C171.151062,391.937500 171.098114,391.996307 171.071106,392.022705 
	C176.409302,392.024750 181.774506,392.000427 187.593689,391.944092 
	C188.047653,391.912140 187.992767,391.870117 187.992767,391.870117 
z"/>
<path fill="#D0D0D0" opacity="1.000000" stroke="none" 
	d="
M642.625488,174.335999 
	C640.900513,169.834503 643.784607,171.226242 646.001953,170.973343 
	C646.451050,176.608047 646.871277,181.881485 647.291565,187.154907 
	C646.933044,187.217804 646.574463,187.280685 646.215942,187.343582 
	C645.069397,183.139252 643.922913,178.934921 642.625488,174.335999 
z"/>
<path fill="#DEDEDE" opacity="1.000000" stroke="none" 
	d="
M641.915527,154.000336 
	C639.823669,153.996414 638.170044,153.996414 636.226440,153.996414 
	C634.132751,148.383850 632.064880,142.840286 629.996948,137.296707 
	C630.481323,137.101028 630.965698,136.905350 631.450073,136.709656 
	C632.162598,138.473465 633.123474,140.180374 633.542908,142.011307 
	C635.053467,148.604660 637.178955,154.409439 645.699036,153.840225 
	C644.583984,153.894913 643.468872,153.949585 641.915527,154.000336 
z"/>
<path fill="#E1E1E1" opacity="1.000000" stroke="none" 
	d="
M156.060303,422.360046 
	C156.293304,419.786377 156.293304,417.502350 156.293304,415.218292 
	C156.521683,415.077209 156.750046,414.936127 156.978424,414.795074 
	C158.751511,418.345673 160.524597,421.896301 162.487503,425.827026 
	C159.464905,425.827026 157.016388,425.827026 154.188644,425.827026 
	C154.747986,424.742432 155.287628,423.696045 156.060303,422.360046 
z"/>
<path fill="#D7D7D7" opacity="1.000000" stroke="none" 
	d="
M195.945312,353.854431 
	C193.632401,354.713135 191.676819,355.444031 189.721252,356.174927 
	C195.068253,351.442474 204.444839,351.185547 204.281754,340.983185 
	C205.647354,349.305695 205.647354,349.305695 195.945312,353.854431 
z"/>
<path fill="#DEDEDE" opacity="1.000000" stroke="none" 
	d="
M199.112762,452.978638 
	C197.735992,452.523132 196.743484,452.094971 195.750961,451.666809 
	C195.816254,451.497192 195.881561,451.327576 195.946854,451.157959 
	C198.831070,451.681183 201.715302,452.204376 204.807327,452.765289 
	C204.807327,455.081116 204.807327,457.188324 204.807327,459.679749 
	C200.091537,459.679749 195.232529,459.679749 190.373535,459.679749 
	C190.359009,459.355591 190.344498,459.031403 190.329987,458.707245 
	C193.962906,458.707245 197.608047,458.864014 201.219040,458.582672 
	C201.996109,458.522186 202.649933,456.879730 203.360519,455.966003 
	C202.072678,454.979340 200.784836,453.992676 199.112762,452.978638 
z"/>
<path fill="#E1E1E1" opacity="1.000000" stroke="none" 
	d="
M625.108582,503.100739 
	C624.358215,504.777466 623.607849,506.454193 622.626770,508.646606 
	C625.413513,508.866028 627.704102,509.046387 629.994751,509.226776 
	C630.005981,509.587250 630.017212,509.947754 630.028503,510.308228 
	C626.099182,510.308228 622.169922,510.308228 617.857178,510.308228 
	C619.881409,507.823364 621.899536,505.346008 624.332886,502.814392 
	C624.748108,502.760101 625.108582,503.100739 625.108582,503.100739 
z"/>
<path fill="#C5C5C5" opacity="1.000000" stroke="none" 
	d="
M188.066742,391.940918 
	C188.494446,391.406097 188.863205,390.388245 189.317749,390.348358 
	C194.395599,389.902954 199.486679,389.608490 204.574036,389.270203 
	C204.262299,392.125916 204.262299,392.125916 188.453247,391.954651 
	C187.992767,391.870117 188.047653,391.912140 188.066742,391.940918 
z"/>
<path fill="#DBDBDB" opacity="1.000000" stroke="none" 
	d="
M632.199707,516.330200 
	C636.817749,518.510254 641.324158,520.275024 645.826782,522.049255 
	C646.192078,522.193237 646.531433,522.403076 646.634705,523.389404 
	C641.164001,521.918457 635.693359,520.447449 630.138672,518.953918 
	C630.138672,516.444336 630.138672,514.158142 630.138672,511.871918 
	C630.494995,511.790009 630.851379,511.708099 631.207703,511.626190 
	C631.500854,513.056580 631.794006,514.487000 632.199707,516.330200 
z"/>
<path fill="#CDCDCD" opacity="1.000000" stroke="none" 
	d="
M226.524750,453.147247 
	C227.859283,458.737396 227.142670,459.819550 222.223648,459.929474 
	C222.223648,457.847992 222.223648,455.769836 222.223648,453.318268 
	C223.571960,453.242981 224.839630,453.172180 226.524750,453.147247 
z"/>
<path fill="#D2D2D2" opacity="1.000000" stroke="none" 
	d="
M788.059326,629.998291 
	C790.888550,635.450134 793.310730,640.913879 795.688293,646.276855 
	C793.212097,646.180054 787.676697,635.318604 788.059326,629.998291 
z"/>
<path fill="#D5D5D5" opacity="1.000000" stroke="none" 
	d="
M624.635620,125.531624 
	C623.772400,123.706825 623.103760,122.203804 622.435120,120.700783 
	C622.837402,120.493713 623.239685,120.286636 623.641968,120.079567 
	C624.775391,122.260994 626.012695,124.395874 627.016174,126.635521 
	C628.294556,129.488586 629.383850,132.426376 630.554688,135.327621 
	C630.132935,135.510803 629.711182,135.693970 629.289368,135.877136 
	C627.802979,132.535889 626.316528,129.194656 624.635620,125.531624 
z"/>
<path fill="#EDEDED" opacity="1.000000" stroke="none" 
	d="
M531.332886,424.145691 
	C533.491943,422.417175 535.367615,420.903015 537.803345,418.936798 
	C537.803345,421.421112 537.803345,422.985901 537.803345,424.804779 
	C535.029846,425.369354 532.279297,425.929291 529.528809,426.489197 
	C529.373779,426.240265 529.218811,425.991333 529.063843,425.742401 
	C529.725769,425.281616 530.387634,424.820831 531.332886,424.145691 
z"/>
<path fill="#DEDEDE" opacity="1.000000" stroke="none" 
	d="
M215.551697,338.950226 
	C218.001923,336.838257 220.042801,334.726044 221.742172,332.967255 
	C222.408035,339.677582 217.894958,342.138397 206.306473,340.571655 
	C209.251663,340.030640 212.197006,339.490295 215.551697,338.950226 
z"/>
<path fill="#D5D5D5" opacity="1.000000" stroke="none" 
	d="
M262.652924,147.728851 
	C263.655823,145.294373 264.366882,143.145462 265.464966,139.826965 
	C266.382843,147.574066 263.353729,153.730423 260.066833,153.764801 
	C260.783691,151.968033 261.572388,149.991226 262.652924,147.728851 
z"/>
<path fill="#D5D5D5" opacity="1.000000" stroke="none" 
	d="
M100.031937,658.167725 
	C99.385384,660.281738 98.828743,661.992126 98.233116,663.822266 
	C96.130424,663.822266 94.196068,663.822266 93.600334,663.822266 
	C95.567299,661.119019 97.943138,657.853882 100.468216,654.383606 
	C100.376915,655.274658 100.249382,656.519287 100.031937,658.167725 
z"/>
<path fill="#DBDBDB" opacity="1.000000" stroke="none" 
	d="
M235.233551,515.520691 
	C236.414368,515.729858 238.650620,516.176880 238.784424,516.975952 
	C239.239212,519.691650 239.180191,522.562805 238.807510,525.305237 
	C238.696503,526.122131 236.910904,526.711487 235.688995,527.113159 
	C238.270203,523.130310 239.127365,519.486389 235.233551,515.520691 
z"/>
<path fill="#DBDBDB" opacity="1.000000" stroke="none" 
	d="
M216.929916,505.075562 
	C214.663086,503.637054 212.396271,502.198517 210.165619,500.252167 
	C210.201813,499.744324 210.495758,499.358093 210.495758,499.358093 
	C212.677383,500.888306 214.859039,502.418488 217.128830,504.343323 
	C217.216980,504.737976 216.929916,505.075562 216.929916,505.075562 
z"/>
<path fill="#DBDBDB" opacity="1.000000" stroke="none" 
	d="
M217.361450,504.569946 
	C219.221603,505.781799 220.937286,507.161621 222.652969,508.541443 
	C222.331543,508.918732 222.010117,509.296051 221.688690,509.673340 
	C220.170517,508.368439 218.652328,507.063538 217.032043,505.417114 
	C216.929916,505.075562 217.216980,504.737976 217.361450,504.569946 
z"/>
<path fill="#E1E1E1" opacity="1.000000" stroke="none" 
	d="
M624.572144,502.585327 
	C625.409485,501.262787 626.422791,500.115051 627.436096,498.967316 
	C627.717468,499.214111 627.998840,499.460876 628.280212,499.707642 
	C627.438110,500.758820 626.596069,501.809967 625.431274,502.980957 
	C625.108582,503.100739 624.748108,502.760101 624.572144,502.585327 
z"/>
<path fill="#DBDBDB" opacity="1.000000" stroke="none" 
	d="
M210.043106,499.927917 
	C209.592148,499.826996 209.299896,499.542450 209.007645,499.257904 
	C209.348801,499.129456 209.689957,499.001007 210.263428,499.115326 
	C210.495758,499.358093 210.201813,499.744324 210.043106,499.927917 
z"/>
<path fill="#DBDBDB" opacity="1.000000" stroke="none" 
	d="
M208.484085,497.544189 
	C208.474594,497.567352 208.493576,497.521057 208.484085,497.544189 
z"/>
<path fill="#DBDBDB" opacity="1.000000" stroke="none" 
	d="
M206.506424,495.507507 
	C206.486908,495.508240 206.525940,495.506775 206.506424,495.507507 
z"/>
</svg>