<svg xmlns="http://www.w3.org/2000/svg" viewBox="0 0 24 25" class="pincode-serviceabilityIcon"><g fill="none" fill-rule="evenodd"><path d="M0 1h24v24H0z"/><path d="M21.872 12.843l-.68 3.849a1.949 1.949 0 00-.398-.819c-.377-.447-.925-.693-1.549-.693-1.024 0-1.98.669-2.395 1.601l1.159-6.571h1.703c.7 0 1.31.265 1.713.746.415.494.573 1.164.447 1.887m-3.238 5.812c-.297 0-.55-.108-.715-.306-.172-.204-.236-.486-.183-.795.123-.698.816-1.288 1.51-1.288.296 0 .55.108.716.306.17.204.235.486.18.794-.123.699-.814 1.289-1.508 1.289m-11.308 0c-.295 0-.55-.108-.715-.306-.171-.204-.236-.486-.18-.794.122-.699.814-1.289 1.508-1.289.296 0 .55.108.714.306.172.204.237.486.182.794-.123.699-.815 1.289-1.509 1.289m14.932-8.397c-.616-.731-1.518-1.134-2.546-1.134H18.2l.262-1.487A.546.546 0 0017.927 7H6.417a.543.543 0 100 1.086H17.28l-1.557 8.832h-5.8a1.965 1.965 0 00-.438-1.045c-.376-.447-.926-.693-1.548-.693-1.074 0-2.074.734-2.454 1.738h-.356l.143-.811a.543.543 0 10-1.069-.188l-.256 1.447a.546.546 0 00.535.637h.86c.045.389.194.753.438 1.045.375.446.925.693 1.548.693 1.075 0 2.075-.734 2.454-1.738h6.867c.044.389.194.752.439 1.045.375.446.925.693 1.547.693 1.075 0 2.075-.734 2.454-1.738h.52c.264 0 .49-.189.534-.449l.799-4.523c.184-1.043-.058-2.028-.683-2.773" fill="#535766"/><path d="M9.812 9.667c0-.3-.243-.543-.543-.543H1.543a.544.544 0 000 1.086h7.726c.3 0 .543-.243.543-.543M9.387 12.074c0-.3-.243-.543-.543-.543h-5.82a.543.543 0 100 1.086h5.82c.3 0 .543-.243.543-.543M8.42 13.938H4.502a.543.543 0 100 1.086H8.42a.543.543 0 100-1.086" fill="#535766"/></g></svg>