<svg xmlns="http://www.w3.org/2000/svg" width="32px" height="32px"  viewBox="0 0 24 24"><g>
                <path d="M18.437,20.937H5.563c-1.378,0-2.5-1.122-2.5-2.5V5.563c0-1.378,1.122-2.5,2.5-2.5h12.874
                    c1.378,0,2.5,1.122,2.5,2.5v12.873C20.937,19.815,19.815,20.937,18.437,20.937z M5.563,4.063c-0.827,0-1.5,0.673-1.5,1.5v12.873
                    c0,0.827,0.673,1.5,1.5,1.5h12.874c0.827,0,1.5-0.673,1.5-1.5V5.563c0-0.827-0.673-1.5-1.5-1.5H5.563z"/>
                <path d="M13.767,14.477c0.45,0.45,1.16-0.25,0.71-0.71l-1.77-1.77l1.77-1.77c0.45-0.45-0.25-1.16-0.71-0.7
                    l-1.77,1.77l-1.77-1.77c-0.45-0.46-1.16,0.25-0.7,0.7c0.59,0.59,1.17,1.18,1.77,1.77l-1.77,1.77c-0.46,0.45,0.25,1.16,0.7,0.71
                    l1.77-1.77L13.767,14.477z"/>
            </g></svg>